<?xml version="1.0" encoding="UTF-8" standalone="no"?>
<!-- Created with Inkscape (http://www.inkscape.org/) -->

<svg
   xmlns:dc="http://purl.org/dc/elements/1.1/"
   xmlns:cc="http://creativecommons.org/ns#"
   xmlns:rdf="http://www.w3.org/1999/02/22-rdf-syntax-ns#"
   xmlns:svg="http://www.w3.org/2000/svg"
   xmlns="http://www.w3.org/2000/svg"
   xmlns:sodipodi="http://sodipodi.sourceforge.net/DTD/sodipodi-0.dtd"
   xmlns:inkscape="http://www.inkscape.org/namespaces/inkscape"
   width="147mm"
   height="93mm"
   viewBox="0 0 147 93"
   version="1.1"
   id="svg8"
   inkscape:version="0.92.3 (2405546, 2018-03-11)"
   sodipodi:docname="gcat.svg">
  <defs
     id="defs2" />
  <sodipodi:namedview
     id="base"
     pagecolor="#ffffff"
     bordercolor="#666666"
     borderopacity="1.0"
     inkscape:pageopacity="0.0"
     inkscape:pageshadow="2"
     inkscape:zoom="1.5497024"
     inkscape:cx="294.9379"
     inkscape:cy="249.94071"
     inkscape:document-units="mm"
     inkscape:current-layer="layer1"
     showgrid="false"
     showguides="true"
     inkscape:window-width="1600"
     inkscape:window-height="1175"
     inkscape:window-x="1366"
     inkscape:window-y="0"
     inkscape:window-maximized="1"
     inkscape:measure-start="0,0"
     inkscape:measure-end="0,0" />
  <metadata
     id="metadata5">
    <rdf:RDF>
      <cc:Work
         rdf:about="">
        <dc:format>image/svg+xml</dc:format>
        <dc:type
           rdf:resource="http://purl.org/dc/dcmitype/StillImage" />
        <dc:title />
      </cc:Work>
    </rdf:RDF>
  </metadata>
  <g
     inkscape:label="Layer 1"
     inkscape:groupmode="layer"
     id="layer1"
     transform="translate(0,-204)">
    <path
       style="fill:#bfbfbf;fill-opacity:1;stroke:#bfbfbf;stroke-width:0.26458332px;stroke-linecap:butt;stroke-linejoin:miter;stroke-opacity:1"
       d="m 46.780488,245.43903 11.780488,4.26829 50.280484,20.91463 -3.41463,2.81708 c -13.812484,-0.15109 -27.502138,-1.40761 -41.743905,2.30488 l -16.731707,2.9878 -4.182925,-0.85366 -2.219513,-4.60976 8.536586,-20.65853 z"
       id="path914"
       inkscape:connector-curvature="0"
       sodipodi:nodetypes="cccccccccc" />
    <g
       id="g844"
       transform="translate(6.6585365,-5.2926829)">
      <g
         transform="translate(-11.759859,122.94398)"
         id="g4762"
         style="fill:#d9d9d9;fill-opacity:1;stroke:#bfbfbf;stroke-opacity:1">
        <path
           id="path4720"
           style="fill:#bfbfbf;fill-opacity:1;stroke:#bfbfbf;stroke-width:0.26458332px;stroke-linecap:butt;stroke-linejoin:miter;stroke-opacity:1"
           d="m 113.10244,107.62107 c 0.29327,-0.18182 0.62538,-0.36551 0.98103,-0.45055 m 18.90284,1.63942 c -1.77864,-0.73237 -3.69202,-1.60597 -5.00343,-1.97043 m -15.58597,49.65571 c 0.2572,2.09257 5.55583,14.56279 10.88116,12.81676 4.97521,-1.63123 0.27967,-16.7833 0.27967,-16.7833 -1.47045,1.69413 -1.65264,2.4779 -6.38132,3.62363 m -70.459474,2.24945 c -0.06682,1.97111 1.467564,13.34133 6.262514,13.2191 4.202737,-0.10714 4.88982,-11.62583 4.88982,-11.62583 v 0 m 64.69502,-57.87992 c -0.15065,0.51833 -0.72206,2.32497 -0.72206,2.32497 m -65.334264,26.34893 c 0,0 -1.001962,-1.25258 -1.602093,-1.97526 23.70684,8.44916 50.188377,-3.36637 52.046627,-4.81555 1.55156,-3.05207 0.78275,-11.7827 6.14993,-16.37713 -1.5382,-3.3882 1.17471,-11.901151 2.28031,-14.341152 1.55926,2.04284 6.48346,7.986772 7.18155,8.835192 0.12273,-0.62787 3.33524,-7.085903 4.44121,-8.976933 1.12763,2.239704 4.48608,12.572243 5.9808,15.671763 0.87289,0.46233 2.88623,1.8785 3.92671,3.21134 5.5571,8.18016 -1.07281,14.58605 -6.14329,19.29434 -9.93554,14.41784 0.0189,24.96837 -18.37282,25.1796 m -0.29949,-2.4559 c 0.28194,2.26558 1.1466,16.52151 -4.11226,17.57266 -5.65778,1.13087 -7.47622,-14.89355 -7.43834,-16.61694 M 70.563788,156.76 c 0.487383,3.31879 0.684797,16.47659 -4.882418,16.60143 -4.498006,0.10087 -7.958441,-13.18073 -8.190067,-16.24847 m 0.377977,2.88207 c 0,0 -5.787552,0.68108 -8.925977,-0.42798 -5.864012,-2.46802 -7.2954,-9.07019 -7.35098,-11.94644 -0.310805,-3.70974 -1.241834,-12.98495 4.483349,-16.46182 -0.667659,-0.69109 -1.98806,-10.70665 -8.177675,-15.70754 -3.776417,-3.05114 -23.094614,-7.35985 -22.935606,-13.37137 5.839979,-3.731727 20.369538,5.7094 24.645574,9.99579 5.33826,5.35118 11.316014,12.33556 15.297918,16.73808 m -8.830211,2.34504 c 0.393952,0.4388 1.064389,1.871 1.400832,2.45121 M 126.72567,96.947712 c -0.75187,1.558835 -3.4352,8.262518 -2.65488,7.912718 0,0 4.96043,1.3435 5.50377,1.27263 0.54334,-0.0709 -2.31119,-9.369872 -2.84889,-9.185348 z"
           inkscape:connector-curvature="0"
           sodipodi:nodetypes="cccccscccccccccccccccccccccccccccccscsccccccc" />
        <path
           style="fill:#d9d9d9;fill-opacity:1;stroke:#bfbfbf;stroke-width:0.26458332px;stroke-linecap:butt;stroke-linejoin:miter;stroke-opacity:1"
           d="m 112.09742,154.03932 v 0"
           id="path4723"
           inkscape:connector-curvature="0"
           sodipodi:nodetypes="cc" />
      </g>
      <path
         sodipodi:nodetypes="cc"
         inkscape:connector-curvature="0"
         id="path828"
         d="m 117.34061,246.18244 c 1.26123,2.78308 5.09477,3.09286 6.73974,3.36887"
         style="fill:none;stroke:#000000;stroke-width:1.26499999;stroke-linecap:butt;stroke-linejoin:miter;stroke-miterlimit:4;stroke-dasharray:none;stroke-opacity:1" />
      <rect
         style="fill:#000000;fill-opacity:1;stroke:#000000;stroke-width:0.41364503;stroke-miterlimit:4;stroke-dasharray:none;stroke-opacity:1"
         id="rect909"
         width="2.6174128"
         height="5.3788662"
         x="114.93544"
         y="235.13428"
         ry="1.4821743" />
    </g>
  </g>
</svg>
