<?xml version="1.0" encoding="UTF-8" standalone="no"?>
<!-- Created with Inkscape (http://www.inkscape.org/) -->

<svg
   xmlns:dc="http://purl.org/dc/elements/1.1/"
   xmlns:cc="http://creativecommons.org/ns#"
   xmlns:rdf="http://www.w3.org/1999/02/22-rdf-syntax-ns#"
   xmlns:svg="http://www.w3.org/2000/svg"
   xmlns="http://www.w3.org/2000/svg"
   xmlns:sodipodi="http://sodipodi.sourceforge.net/DTD/sodipodi-0.dtd"
   xmlns:inkscape="http://www.inkscape.org/namespaces/inkscape"
   width="147mm"
   height="112mm"
   viewBox="0 0 147 112"
   version="1.1"
   id="svg8"
   inkscape:version="0.92.3 (2405546, 2018-03-11)"
   sodipodi:docname="husky.svg"
   inkscape:export-filename="/home/william/Downloads/shiba.png"
   inkscape:export-xdpi="96"
   inkscape:export-ydpi="96">
  <defs
     id="defs2" />
  <sodipodi:namedview
     id="base"
     pagecolor="#ffffff"
     bordercolor="#666666"
     borderopacity="1.0"
     inkscape:pageopacity="0.0"
     inkscape:pageshadow="2"
     inkscape:zoom="1.224961"
     inkscape:cx="155.75204"
     inkscape:cy="270.50302"
     inkscape:document-units="mm"
     inkscape:current-layer="g844"
     showgrid="false"
     showguides="true"
     inkscape:window-width="1600"
     inkscape:window-height="1175"
     inkscape:window-x="1366"
     inkscape:window-y="0"
     inkscape:window-maximized="1"
     inkscape:measure-start="0,0"
     inkscape:measure-end="0,0" />
  <metadata
     id="metadata5">
    <rdf:RDF>
      <cc:Work
         rdf:about="">
        <dc:format>image/svg+xml</dc:format>
        <dc:type
           rdf:resource="http://purl.org/dc/dcmitype/StillImage" />
        <dc:title />
      </cc:Work>
    </rdf:RDF>
  </metadata>
  <g
     inkscape:label="Layer 1"
     inkscape:groupmode="layer"
     id="layer1"
     transform="translate(0,-185)">
    <g
       id="g844">
      <path
         style="fill:#f2f2f2;stroke:#f2f2f2;stroke-width:0.26458332px;stroke-linecap:butt;stroke-linejoin:miter;stroke-opacity:1;fill-opacity:1"
         d="m 107.00811,187.15485 1.82597,2.83705 1.14689,5.32701 -6.05137,1.84107 -2.15797,-0.28673 1.58453,-1.85615 z"
         id="path984"
         inkscape:connector-curvature="0" />
      <path
         style="fill:#e5e5e5;fill-opacity:1;stroke:#a9a9a9;stroke-width:0.765;stroke-linecap:butt;stroke-linejoin:miter;stroke-opacity:1;stroke-miterlimit:4;stroke-dasharray:none"
         d="m 33.185571,254.24112 c 2.972821,0.71253 5.399615,1.69219 11.137243,1.33673 0,0 -9.811681,36.60886 -17.646593,36.16838 -7.834912,-0.44048 6.50935,-37.50511 6.50935,-37.50511 z"
         id="path946"
         inkscape:connector-curvature="0"
         sodipodi:nodetypes="cczc" />
      <g
         transform="translate(-10.069701,120.77092)"
         id="g4762">
        <path
           style="fill:#ffe593;fill-opacity:1;stroke:#ffe594;stroke-width:0.26458332px;stroke-linecap:butt;stroke-linejoin:miter;stroke-opacity:1"
           d="m 129.62221,96.01116 4.9255,1.35835 -0.14174,2.102493 -5.04362,-2.126115 z"
           id="path4712"
           inkscape:connector-curvature="0" />
        <g
           id="g977">
          <path
             sodipodi:nodetypes="cccccscccccccccc"
             inkscape:connector-curvature="0"
             id="path4710"
             d="m 100.14678,128.69969 c 1.77066,-0.0334 6.5481,2.17156 6.5481,2.17156 l 2.29761,7.01519 -7.41673,1.80407 h -0.6807 c 0,0 -11.293814,1.49035 -15.319477,-0.4379 -10.540635,-5.04886 -18.647426,-4.6244 -18.647426,-4.6244 -11.863753,-5.27285 -6.276053,3.08753 -23.672885,-1.15801 l 2.452621,-28.25303 c 0.915484,-0.50089 1.421248,-1.1464 2.880061,-1.45553 l 2.19058,1.51113 14.161842,0.006 9.75651,4.97275 7.027995,3.00019 4.275854,2.79938 z"
             style="fill:#373737;fill-opacity:1;stroke:#c9c9c9;stroke-width:0.26458332px;stroke-linecap:butt;stroke-linejoin:miter;stroke-opacity:1" />
          <path
             sodipodi:nodetypes="cccsccccccsscccccsccccscczccscczccccczccccccc"
             inkscape:connector-curvature="0"
             d="m 131.50329,77.719003 c -1.85155,-0.672033 -3.61638,-1.639682 -5.00343,-1.970437 m -15.8724,62.729284 c 0.2572,2.09257 17.82637,31.67465 19.94459,30.44373 1.91965,-1.11553 -7.96095,-33.29565 -7.96095,-33.29565 l -0.0334,0.0334 v 0 m -1.49642,-64.635159 c -0.90518,0.699416 -2.56312,2.008062 -2.56312,2.008062 M 48.109961,103.91615 c 1.165727,-0.89291 17.779261,-2.31398 26.416456,-0.5099 7.01324,1.46489 21.944068,0.83483 26.137373,-4.60998 2.69652,-3.501298 -0.0979,-13.535786 9.46173,-21.583213 l 6.95634,-12.224532 3.99942,6.035648 13.08921,-5.466426 -2.6672,12.161256 c 0,0 2.88623,1.878499 3.92671,3.211339 1.71205,2.19311 3.15534,4.8544 3.55803,7.55036 l 7.61718,0.33411 c 3.65583,0.12737 6.82602,-0.11482 6.60189,2.50061 -0.71786,8.37676 -7.21419,12.976998 -13.41726,13.134658 -2.57697,12.93806 -8.35487,29.18346 -17.57472,31.3844 -3.89109,0.92887 -10.71125,2.14914 -11.58766,2.64337 m -0.29949,-2.4559 c 0.28194,2.26558 12.28226,35.81724 3.73282,37.60703 -8.54944,1.78979 -15.320992,-34.0139 -15.283112,-35.73729 m 2.117382,1.79882 c -3.761496,0.51673 -14.014455,0.16861 -17.085418,-1.1781 -11.541719,-5.0614 -19.286799,-5.97349 -16.439137,-4.30004 m -0.283482,-2.8112 c 0.487383,3.31879 -9.870029,40.51296 -19.128032,40.50509 -9.258003,-0.008 2.360344,-36.40146 2.128718,-39.4692 m -0.339049,2.01015 c -1.096961,0.337 -6.951141,-0.39914 -6.493388,-1.14774 -6.554139,-4.20214 -6.835623,-13.17123 -5.379805,-19.36537 -2.333076,16.61622 -11.034171,53.92725 -20.66763,47.08978 -3.698309,-3.13343 1.288791,-27.09893 2.829231,-36.6636 1.54044,-9.56467 10.620908,-21.93313 28.072889,-20.44413 m -10.23449,10.01795 c 0.02063,-3.51279 4.205595,-9.71839 10.234494,-10.01795 m 69.167779,-36.213242 -3.15857,7.541542 4.39899,-2.212217 z"
             style="fill:#373737;fill-opacity:1;stroke:#a9a9a9;stroke-width:0.26458332px;stroke-linecap:butt;stroke-linejoin:miter;stroke-opacity:1"
             id="path4720" />
        </g>
      </g>
      <path
         style="fill:#fefefe;fill-opacity:1;stroke:#323232;stroke-width:0.765;stroke-linecap:butt;stroke-linejoin:miter;stroke-opacity:1;stroke-miterlimit:4;stroke-dasharray:none"
         d="m 88.707977,258.66261 c -6.75e-4,0.0232 0.09777,1.24783 0.138165,1.94856 -1.806417,0.80323 -6.696031,0.69663 -10.349928,0.18042 -2.178602,-0.30779 -4.980647,-1.64415 -6.604153,-2.24268 -4.803941,-1.77105 -15.033605,-3.14978 -15.033605,-3.14978 -2.335677,-4.35155 21.932357,1.2868 31.849521,3.26348 z"
         id="path953"
         inkscape:connector-curvature="0"
         sodipodi:nodetypes="ccsscc" />
      <path
         style="fill:#e5e5e5;fill-opacity:1;stroke:#a9a9a9;stroke-width:0.76499999;stroke-linecap:butt;stroke-linejoin:miter;stroke-miterlimit:4;stroke-dasharray:none;stroke-opacity:1"
         d="m 101.1463,259.23368 11.3617,-2.80343 c 0,0 16.13974,32.73209 8.44426,35.50105 -7.69548,2.76896 -20.3945,-32.68253 -19.80596,-32.69762 z"
         id="path944"
         inkscape:connector-curvature="0"
         sodipodi:nodetypes="cczc" />
      <path
         style="fill:#ffffff;fill-opacity:1;stroke:#323232;stroke-width:0.96499997;stroke-linecap:butt;stroke-linejoin:miter;stroke-miterlimit:4;stroke-dasharray:none;stroke-opacity:1"
         d="m 142.56556,210.77759 c -2.85738,-0.74041 -7.92568,-1.11803 -13.65811,-0.87585 -8.67993,-17.92525 -24.40644,-5.15617 -23.41835,7.81218 0.47916,6.28896 7.91291,15.78695 5.5605,19.29424 -2.35241,3.5073 -8.80838,2.48885 -10.86529,6.09664 -2.666024,4.67616 0.37345,16.14397 0.37345,16.14397 19.86867,-0.5004 24.15124,-12.11228 29.16238,-34.02777 5.61094,-0.28146 14.34036,-6.15011 12.84542,-14.44341 z"
         id="path927"
         inkscape:connector-curvature="0"
         sodipodi:nodetypes="ccszaccc" />
      <path
         sodipodi:nodetypes="cc"
         inkscape:connector-curvature="0"
         id="path828"
         d="m 124.33627,220.24292 c 2.9778,4.0092 10.973,2.24983 12.61797,2.52584"
         style="fill:none;stroke:#000000;stroke-width:1.26499999;stroke-linecap:butt;stroke-linejoin:miter;stroke-miterlimit:4;stroke-dasharray:none;stroke-opacity:1" />
      <rect
         style="fill:#020201;fill-opacity:1;stroke:#010101;stroke-width:0.565;stroke-miterlimit:4;stroke-dasharray:none;stroke-opacity:1"
         id="rect4716"
         width="2.9886019"
         height="6.8365812"
         x="120.15539"
         y="208.20546"
         ry="2.0956597"
         rx="1.494301" />
      <path
         style="fill:#020201;fill-opacity:1;stroke:#000000;stroke-width:0.26458332px;stroke-linecap:butt;stroke-linejoin:miter;stroke-opacity:1"
         d="m 135.82006,209.53603 c 0.0735,3.56722 0.0737,8.22035 5.82435,8.09533 0.92251,-2.32944 2.27837,-5.26621 1.15843,-6.8858 -1.11994,-1.61959 -4.7186,-1.16257 -6.98278,-1.20953 z"
         id="path907"
         inkscape:connector-curvature="0"
         sodipodi:nodetypes="cczc" />
    </g>
  </g>
</svg>
